# Blender 3.5.1
# www.blender.org
mtllib cube.mtl
o cube
v 1.000000 -1.000000 -1.000000
v 1.000000 -1.000000 1.000000
v -1.000000 -1.000000 1.000000
v -1.000000 -1.000000 -1.000000
v 1.000000 1.000000 -1.000000
v 0.999999 1.000000 1.000001
v -1.000000 1.000000 1.000000
v -1.000000 1.000000 -1.000000
vn -0.0000 -0.0000 1.0000
vn 1.0000 -0.0000 -0.0000
vn -0.0000 -0.0000 -1.0000
vn -1.0000 -0.0000 -0.0000
vn -0.0000 -1.0000 -0.0000
vn -0.0000 1.0000 -0.0000
vt 0.749279 0.501284
vt 0.499422 0.500239
vt 0.250471 0.500702
vt 0.498993 0.250415
vt 0.999110 0.501077
vt 0.001517 0.499994
vt 0.748953 0.250920
vt 0.748573 0.750412
vt 0.500149 0.750166
vt 0.249682 0.749677
vt 0.500193 0.998728
vt 0.999455 0.750380
vt 0.001085 0.750380
vt 0.748355 0.998230
s 0
f 5/8/1 4/5/1 1/1/1
f 5/8/1 8/12/1 4/5/1
f 3/3/2 8/13/2 7/10/2
f 3/3/2 4/6/2 8/13/2
f 2/2/3 3/3/3 6/9/3
f 6/9/3 3/3/3 7/10/3
f 1/1/4 2/2/4 5/8/4
f 5/8/4 2/2/4 6/9/4
f 5/8/5 6/9/5 8/14/5
f 8/14/5 6/9/5 7/11/5
f 1/1/6 3/4/6 2/2/6
f 1/1/6 4/7/6 3/4/6
